<?xml version="1.0" encoding="UTF-8"?>
<svg id="Layer_1" xmlns="http://www.w3.org/2000/svg" version="1.1" viewBox="0 600 1920 720">
  <!-- Generator: Adobe Illustrator 29.1.0, SVG Export Plug-In . SVG Version: 2.1.0 Build 142)  -->
  <path d="M1570.86,791.39l76.97,191.12,33.52-92.92-38.62-98.18,32.1,2.51,74.45,186.06,75.51-187.01,7.87-1.57-88.83,226.96c-2.99.13-6.08.22-8.75-1.39-7.18-4.33-37.45-99.7-47.43-113.47l-45.22,114.38-12.11-.12-91.56-223.8-1.27,15.29c-38.41-4.61-76.55-12.5-115.5-10.2v96.84h74.44v7.65h-74.44v107.03c38.95,2.29,77.1-5.59,115.5-10.2v17.85s-143.74,0-143.74,0v-226.81h177.11Z"/>
  <path d="M700.7,795.21c1.72-5.53,19.91-5.32,24.57-1.45,43.3,51.67,79.86,114.55,123.56,165.14,1.59,1.84-.13,4.77,5.89,3.24v-170.74h10.26s0,226.8,0,226.8l-10.29-3.78-143.71-187.34v191.13h-10.27v-222.98Z"/>
  <path d="M146.3,964.68c23.26,23.12,43.81,55.25,82.25,47.28,27.53-5.7,42.82-35.64,26.62-59.85-26.99-40.33-110.19-32.37-120.58-86.71-14.42-75.42,81.46-89.17,132.32-60l2.17,7.05-16.29,22.21c-22.13-21.97-60.57-41.48-90.37-23.41-27.71,16.8-11.46,45.82,9.75,60.18,36.33,24.61,118.49,32.79,112.71,91.99-6.41,65.56-115.38,73.87-152.83,29.33l14.27-28.07Z"/>
  <path d="M682.73,791.39v17.85c-38.4-4.61-76.55-12.5-115.51-10.2v96.84h74.44v7.65h-74.44v107.03c38.96,2.29,77.11-5.59,115.5-10.2v17.85s-143.74,0-143.74,0v-226.81h143.74Z"/>
  <path d="M503.03,844.9c-39.88-31.86-73.61-65.34-128.26-39.45-38.28,18.14-51.82,62.37-48.79,101.84,7.91,102.91,128.48,145.14,182.52,49.9l9.95,2.41c-30.89,49.38-72.03,70.68-130.99,57.4-43.73-9.85-84.05-46.39-89.47-92.11-13.5-113.75,108.79-164.63,201.27-120.82l3.78,40.82Z"/>
  <path d="M1154.68,791.73l77.32,190.78,72.18-190.83,9.98-.28-88.84,226.94-11.55-1.66-89.27-221.79c-1.09-4.86,0-3.1,3.53-3.51,3.89-.45,25.14-.62,26.65.35Z"/>
  <path d="M1052.36,791.39v17.83c-23.77-5.78-46.93-12.78-71.87-10.18v219.16h-28.24v-215.34c-20.38-9.63-50.84-1.44-70.6,8.86-6.33-4.81-3.34-13.33-3.83-20.33h174.55Z"/>
  <rect x="1329.58" y="791.39" width="28.24" height="226.81"/>
  <path d="M1016.42,931.55l.02-20.38c34.65,11.23,79.61,12.17,114.17-.05,2.48-.04,2.85,18.4-2.53,20.43h-111.66Z"/>
</svg>